<mxfile host="app.diagrams.net" modified="2023-05-15T20:24:52.622Z" agent="Mozilla/5.0 (Windows NT 10.0; Win64; x64) AppleWebKit/537.36 (KHTML, like Gecko) Chrome/113.0.0.0 Safari/537.36" etag="VvOO0fJVi9N05SxKoaGQ" version="21.2.9" type="device">
  <diagram id="C5RBs43oDa-KdzZeNtuy" name="Page-1">
    <mxGraphModel dx="794" dy="391" grid="1" gridSize="10" guides="1" tooltips="1" connect="1" arrows="1" fold="1" page="1" pageScale="1" pageWidth="827" pageHeight="1169" math="0" shadow="0">
      <root>
        <mxCell id="WIyWlLk6GJQsqaUBKTNV-0" />
        <mxCell id="WIyWlLk6GJQsqaUBKTNV-1" parent="WIyWlLk6GJQsqaUBKTNV-0" />
        <mxCell id="hYdajQkNYkDuXGlAYVQ5-3" style="edgeStyle=orthogonalEdgeStyle;rounded=0;orthogonalLoop=1;jettySize=auto;html=1;entryX=0;entryY=0.5;entryDx=0;entryDy=0;" edge="1" parent="WIyWlLk6GJQsqaUBKTNV-1" source="hYdajQkNYkDuXGlAYVQ5-0" target="hYdajQkNYkDuXGlAYVQ5-1">
          <mxGeometry relative="1" as="geometry" />
        </mxCell>
        <mxCell id="hYdajQkNYkDuXGlAYVQ5-0" value="https://www.webtoons.com/" style="ellipse;shape=cloud;whiteSpace=wrap;html=1;" vertex="1" parent="WIyWlLk6GJQsqaUBKTNV-1">
          <mxGeometry x="30" y="150" width="200" height="130" as="geometry" />
        </mxCell>
        <mxCell id="hYdajQkNYkDuXGlAYVQ5-5" value="" style="edgeStyle=orthogonalEdgeStyle;rounded=0;orthogonalLoop=1;jettySize=auto;html=1;" edge="1" parent="WIyWlLk6GJQsqaUBKTNV-1" source="hYdajQkNYkDuXGlAYVQ5-1" target="hYdajQkNYkDuXGlAYVQ5-4">
          <mxGeometry relative="1" as="geometry" />
        </mxCell>
        <mxCell id="hYdajQkNYkDuXGlAYVQ5-15" style="edgeStyle=orthogonalEdgeStyle;rounded=0;orthogonalLoop=1;jettySize=auto;html=1;entryX=0.5;entryY=0;entryDx=0;entryDy=0;entryPerimeter=0;" edge="1" parent="WIyWlLk6GJQsqaUBKTNV-1" source="hYdajQkNYkDuXGlAYVQ5-1" target="hYdajQkNYkDuXGlAYVQ5-10">
          <mxGeometry relative="1" as="geometry" />
        </mxCell>
        <mxCell id="hYdajQkNYkDuXGlAYVQ5-16" value="Info sur le webtoon" style="edgeLabel;html=1;align=center;verticalAlign=middle;resizable=0;points=[];" vertex="1" connectable="0" parent="hYdajQkNYkDuXGlAYVQ5-15">
          <mxGeometry x="-0.2658" y="2" relative="1" as="geometry">
            <mxPoint as="offset" />
          </mxGeometry>
        </mxCell>
        <mxCell id="hYdajQkNYkDuXGlAYVQ5-1" value="Selenium" style="shape=process;whiteSpace=wrap;html=1;backgroundOutline=1;" vertex="1" parent="WIyWlLk6GJQsqaUBKTNV-1">
          <mxGeometry x="280" y="185" width="120" height="60" as="geometry" />
        </mxCell>
        <mxCell id="hYdajQkNYkDuXGlAYVQ5-6" style="edgeStyle=orthogonalEdgeStyle;rounded=0;orthogonalLoop=1;jettySize=auto;html=1;entryX=0.394;entryY=0.967;entryDx=0;entryDy=0;entryPerimeter=0;" edge="1" parent="WIyWlLk6GJQsqaUBKTNV-1" source="hYdajQkNYkDuXGlAYVQ5-4" target="hYdajQkNYkDuXGlAYVQ5-4">
          <mxGeometry relative="1" as="geometry">
            <mxPoint x="246" y="462" as="targetPoint" />
            <Array as="points">
              <mxPoint x="247" y="362" />
              <mxPoint x="247" y="462" />
              <mxPoint x="327" y="462" />
            </Array>
          </mxGeometry>
        </mxCell>
        <mxCell id="hYdajQkNYkDuXGlAYVQ5-7" value="Parcour toutes les pages" style="edgeLabel;html=1;align=center;verticalAlign=middle;resizable=0;points=[];" vertex="1" connectable="0" parent="hYdajQkNYkDuXGlAYVQ5-6">
          <mxGeometry x="0.0853" relative="1" as="geometry">
            <mxPoint x="-23" y="-40" as="offset" />
          </mxGeometry>
        </mxCell>
        <mxCell id="hYdajQkNYkDuXGlAYVQ5-9" value="" style="edgeStyle=orthogonalEdgeStyle;rounded=0;orthogonalLoop=1;jettySize=auto;html=1;" edge="1" parent="WIyWlLk6GJQsqaUBKTNV-1" source="hYdajQkNYkDuXGlAYVQ5-4" target="hYdajQkNYkDuXGlAYVQ5-8">
          <mxGeometry relative="1" as="geometry" />
        </mxCell>
        <mxCell id="hYdajQkNYkDuXGlAYVQ5-4" value="Page scrapping" style="shape=tape;whiteSpace=wrap;html=1;" vertex="1" parent="WIyWlLk6GJQsqaUBKTNV-1">
          <mxGeometry x="280" y="312" width="120" height="100" as="geometry" />
        </mxCell>
        <mxCell id="hYdajQkNYkDuXGlAYVQ5-13" style="edgeStyle=orthogonalEdgeStyle;rounded=0;orthogonalLoop=1;jettySize=auto;html=1;entryX=0.5;entryY=1;entryDx=0;entryDy=0;entryPerimeter=0;" edge="1" parent="WIyWlLk6GJQsqaUBKTNV-1" source="hYdajQkNYkDuXGlAYVQ5-8" target="hYdajQkNYkDuXGlAYVQ5-10">
          <mxGeometry relative="1" as="geometry">
            <mxPoint x="686" y="320" as="targetPoint" />
            <Array as="points">
              <mxPoint x="739" y="370" />
            </Array>
          </mxGeometry>
        </mxCell>
        <mxCell id="hYdajQkNYkDuXGlAYVQ5-14" value="Commentaires+réponses" style="edgeLabel;html=1;align=center;verticalAlign=middle;resizable=0;points=[];" vertex="1" connectable="0" parent="hYdajQkNYkDuXGlAYVQ5-13">
          <mxGeometry x="0.0321" y="-2" relative="1" as="geometry">
            <mxPoint as="offset" />
          </mxGeometry>
        </mxCell>
        <mxCell id="hYdajQkNYkDuXGlAYVQ5-8" value="-Scrap tous les commentaires&lt;br&gt;-Scrap les réponses aux commentaires" style="shape=process;whiteSpace=wrap;html=1;backgroundOutline=1;align=left;" vertex="1" parent="WIyWlLk6GJQsqaUBKTNV-1">
          <mxGeometry x="436" y="332" width="166" height="60" as="geometry" />
        </mxCell>
        <mxCell id="hYdajQkNYkDuXGlAYVQ5-10" value="CSV" style="shape=cylinder3;whiteSpace=wrap;html=1;boundedLbl=1;backgroundOutline=1;size=15;" vertex="1" parent="WIyWlLk6GJQsqaUBKTNV-1">
          <mxGeometry x="709" y="260" width="60" height="80" as="geometry" />
        </mxCell>
      </root>
    </mxGraphModel>
  </diagram>
</mxfile>
